<?xml version="1.0" encoding="utf-8"?>
<!-- Generator: Adobe Illustrator 28.0.0, SVG Export Plug-In . SVG Version: 6.00 Build 0)  -->
<svg version="1.1" id="Layer_1" xmlns="http://www.w3.org/2000/svg" xmlns:xlink="http://www.w3.org/1999/xlink" x="0px" y="0px"
	 viewBox="0 0 285.35 413.31" style="enable-background:new 0 0 285.35 413.31;" xml:space="preserve">
<style type="text/css">
	.st0{fill:#96BE4B;}
	.st1{fill:#965B50;}
	.st2{fill:#AF6E5A;}
</style>
<path class="st0" d="M168.39,400.37c4.07,0.02,8.15,0.09,12.22,0.04c3.37-0.04,5.9,1.13,7.03,4.5c1.1,3.25-0.3,5.57-2.82,7.48
	c-0.28,0.21-0.42,0.61-0.62,0.92c-23.15,0-46.29,0-69.44,0c-1.97-1.54-4.08-2.92-4.36-5.79c-0.37-3.76,2.24-6.86,6.35-7.03
	c4.37-0.18,8.74-0.08,13.11-0.11c6.4,0,12.8-0.01,19.2-0.01C155.5,400.37,161.94,400.37,168.39,400.37z"/>
<path class="st1" d="M133.85,315.94c0.6-10.88,1.2-21.75,1.8-32.63c5.33,0.16,10.51-0.68,15.6-2.25c7.91-2.45,10.72-0.73,11.95,7.34
	c0.18,1.16,0.04,2.37,0.06,3.55c-2.26,0.76-4.52,1.51-6.78,2.28c-6.54,2.23-7.37,3.4-7.37,10.37c-0.01,31.92-0.02,63.85-0.03,95.77
	c-6.4,0-12.8,0.01-19.2,0.01c1.33-26.69,2.65-53.38,3.97-80.08C133.9,318.86,133.85,317.4,133.85,315.94z"/>
<path class="st2" d="M149.06,400.37c0.01-31.92,0.02-63.85,0.03-95.77c0-6.97,0.83-8.14,7.37-10.37c2.26-0.77,4.52-1.52,6.78-2.28
	c0.1,1.89,0.21,3.78,0.31,5.67c0.87,19.12,1.71,38.23,2.6,57.35c0.71,15.13,1.48,30.26,2.22,45.4
	C161.94,400.37,155.5,400.37,149.06,400.37z"/>
</svg>
