<?xml version="1.0" encoding="utf-8"?>
<!-- Generator: Adobe Illustrator 28.0.0, SVG Export Plug-In . SVG Version: 6.00 Build 0)  -->
<svg version="1.1" id="Layer_1" xmlns="http://www.w3.org/2000/svg" xmlns:xlink="http://www.w3.org/1999/xlink" x="0px" y="0px"
	 viewBox="0 0 285.35 413.31" style="enable-background:new 0 0 285.35 413.31;" xml:space="preserve">
<style type="text/css">
	.st0{fill:#AED655;}
</style>
<path class="st0" d="M157.81,6.43c17.62,3.86,31.7,13.19,42.36,27.65c1.67,2.27,3.38,3.2,6.2,3.27
	c34.67,0.94,63.8,24.94,70.92,58.95c4.12,19.66,0.77,38.31-10.17,55.32c-1.68,2.61-1.47,4.24,0.27,6.61
	c34.97,47.61,16.99,114.15-37.35,137.55c-20.37,8.77-41.41,9.55-62.65,2.95c-1.26-0.39-2.54-0.73-3.81-1.09
	c-0.11-1.89-0.21-3.78-0.32-5.67c-0.01-1.18,0.12-2.39-0.05-3.55c-1.22-8.08-4.03-9.79-11.95-7.34c-5.08,1.57-10.27,2.41-15.6,2.26
	c-2.39-0.07-4.86,0.23-7.16-0.27c-14.69-3.22-26.85-10.47-35.34-23.16c-8.76-13.1-10.85-27.38-6.82-42.53
	c1.04-3.91,0.55-7.2-2.84-9.52c-4.59-3.14-7.88-7.5-11.07-11.85c-10.31-14.06-14.8-29.78-13.61-47.29
	c1.15-16.86,7.79-31.15,18.94-43.54c6.03-6.7,13.49-11.5,21.4-15.64c3.36-1.76,5.88-4.37,5.08-8.14
	c-1.34-6.33-0.17-12.42,0.99-18.46C110.16,37.32,125.35,20,148.91,9.6C151.8,8.33,155.16,8.37,157.81,6.43z"/>
</svg>
