<?xml version="1.0" encoding="utf-8"?>
<!-- Generator: Adobe Illustrator 28.0.0, SVG Export Plug-In . SVG Version: 6.00 Build 0)  -->
<svg version="1.1" id="Layer_1" xmlns="http://www.w3.org/2000/svg" xmlns:xlink="http://www.w3.org/1999/xlink" x="0px" y="0px"
	 viewBox="0 0 318.63 222.28" style="enable-background:new 0 0 318.63 222.28;" xml:space="preserve">
<style type="text/css">
	.st0{fill:#AED655;}
	.st1{fill:#FFFFFF;}
</style>
<path class="st0" d="M184.26,400c11.02-16.57,21.4-30.63,33.69-49.45c6.95-10.65,12.07-22.29,14.22-34.99
	c2.94-17.41-2.27-32.74-13.85-45.38c-11.24-12.26-23.84-23.27-35.67-35.01c-8.89-8.82-18.17-17.39-25.99-27.1
	c-5.33-6.62-8.99-14.78-12.42-22.68c-4.98-11.46-8.5-23.57-13.71-34.91c-5.14-11.19-14.34-18.98-25.09-24.88
	c-2.29-1.26-4.52-2.62-7.29-4.23c6.33-1.78,23.82,7.62,32.68,19.19c7.79,10.17,13.5,21.92,19.81,32.45
	c0.16-2.93,0.21-6.93,0.64-10.89c1.9-17.51,8.22-33.66,15.44-49.52c7.67-16.84,15.68-33.53,23.07-50.49
	c5.67-13,9.03-26.69,9.7-40.94c0.05-1.18,0.33-2.35,0.51-3.52c0.44-0.05,0.87-0.1,1.31-0.15c0.3,1.45,0.78,2.88,0.88,4.35
	c1.28,20.29-3.33,39.61-9.89,58.58c-1.99,5.75-4.09,11.46-5.85,17.33c12.34-12.09,24.94-23.9,31.38-40.49
	c3.74-9.63,2.71-18.4-4.48-26.15c-0.6-0.65-0.91-1.57-1.94-3.43c1.87,0.72,2.8,0.86,3.44,1.36c9.19,7.28,11.61,16.88,9.12,27.92
	c-2.6,11.55-9.4,20.9-16.24,30.25c-10.84,14.82-22.47,29.2-31.92,44.88c-17.43,28.89-14.41,60.39,7.72,85.95
	c9.1,10.51,20.11,19.34,29.95,29.23c9.84,9.88,19.6,19.88,28.79,30.35c3.96,4.51,6.39,10.35,9.73,15.96
	c0.62-2.01,1.3-4.05,1.86-6.12c6.93-25.54,5.61-50.43-5.64-74.62c-6.42-13.81-12.78-27.66-18.97-41.57
	c-2.51-5.65-4.09-11.6-2.17-17.85c1.19-3.86,3.27-7.07,7.91-9.69c-0.56,1.85-0.59,2.85-1.09,3.46c-4.08,4.98-4.02,10.53-2.01,16.15
	c1.33,3.73,3.1,7.33,4.89,10.88c8.21,16.26,16.89,32.3,24.67,48.76c14.25,30.17,12.04,60.31-0.47,90.65
	c-12.74,30.89-28.95,59.67-49.14,86.25c-0.94,1.23-1.8,2.52-3.14,4.41c-20.66,2-27.78,1.93-27.95,0.88
	C180.62,404.4,184.04,402.39,184.26,400c0.04-0.38-0.04-0.43-0.07-0.45c-0.53-0.23-3.61,5.5-3.45,5.6
	C180.85,405.22,182.46,402.71,184.26,400z"/>
<path class="st0" d="M49.01,136.17c12.78,6.06,25.25,5.3,37.8,4.25c12.42-1.04,24.53-0.18,35.16,7.44c1.25,0.9,2.51,1.79,3.72,3.09
	c-13.81-2.13-26.43,3.73-39.65,5.26C70.61,158,56.1,150.5,49.01,136.17z"/>
<path class="st0" d="M136.28,23.55c1.72,13.56,8.59,23.29,15.9,32.84c6.41,8.38,12.63,16.94,13.65,27.95
	c0.36,3.94,0.41,7.92-0.12,12.1c-1.76-2.92-3.14-6.16-5.35-8.68c-4.76-5.46-9.93-10.57-14.96-15.79
	c-6.27-6.5-12.19-13.24-13.77-22.57C130.17,40.74,131.31,32.48,136.28,23.55z"/>
<path class="st0" d="M45.69,129.32c8.53,1.21,15.75-3.04,23.42-5.23c18.5-5.29,34.5,0.66,45.45,17.68
	c-13.06-6.1-26.18-3.11-39.11-2.97C64.47,138.91,54.52,136.24,45.69,129.32z"/>
<path class="st0" d="M139.71,17.83c3.57,3.56,7.03,7.03,10.51,10.47c5.14,5.07,11.01,9.59,15.31,15.29
	c8.93,11.81,7.1,24.76,2.03,37.72c-1.72-10.88-8.27-19.13-14.55-27.5c-6.22-8.28-11.61-16.91-12.84-27.47
	C139.83,23.32,139.84,20.24,139.71,17.83z"/>
<path class="st0" d="M268.48,49.74c-6.84,1.66-13.68,3.31-20.52,4.99c-6.26,1.53-12.51,3.08-18.41,4.53
	c0.5-5.42,7.58-12.65,15.32-14.01c4.02-0.71,8.18-0.64,12.28-0.77c2.98-0.09,5.96,0.19,8.94,0.09c2.77-0.1,5.52-0.48,9.07-0.81
	c-2.53,2.28-4.59,4.14-6.65,6.01L268.48,49.74z"/>
<path class="st0" d="M211.14,147.34c-6.16,1.54-12.3,3.16-18.48,4.61c-6.81,1.59-13.65,3.03-20.08,4.45
	c0.72-6.53,9.18-13.77,18.65-14.41c4.52-0.31,9.08,0.05,13.62-0.03c4.09-0.08,8.18-0.34,12.87-0.55c-2.32,2.12-4.45,4.05-6.57,5.99
	L211.14,147.34z"/>
<path class="st0" d="M268.51,49.77c-0.58,6.95-5.43,10.83-10.7,14.06c-5.59,3.42-11.9,3.23-18.21,2.44
	c-3.9-0.49-7.82-0.77-11.98-1.17c5.22-5.12,11.59-7.81,18.92-8.76c5.34-0.69,10.69-1.46,15.9-2.75c2.2-0.54,4.04-2.52,6.04-3.84
	C268.48,49.74,268.51,49.77,268.51,49.77z"/>
<path class="st0" d="M211.16,147.39c-0.3,1.48-0.25,3.17-0.97,4.41c-5.42,9.29-14.48,13.48-25.29,12.05
	c-4.73-0.63-9.49-1.02-14.25-1.52c4.67-4.56,10.57-7.46,17.5-8.46c5.62-0.82,11.28-1.54,16.8-2.83c2.23-0.52,4.14-2.42,6.19-3.69
	C211.14,147.34,211.16,147.39,211.16,147.39z"/>
<rect x="227.61" y="136.17" transform="matrix(0.9897 -0.1433 0.1433 0.9897 -25.4289 39.5974)" class="st1" width="69.02" height="120.25"/>
<rect x="282.22" y="220.01" class="st1" width="4.55" height="4.55"/>
</svg>
