<?xml version="1.0" encoding="utf-8"?>
<!-- Generator: Adobe Illustrator 28.0.0, SVG Export Plug-In . SVG Version: 6.00 Build 0)  -->
<svg version="1.1" id="Layer_1" xmlns="http://www.w3.org/2000/svg" xmlns:xlink="http://www.w3.org/1999/xlink" x="0px" y="0px"
	 viewBox="0 0 347.21 385.57" style="enable-background:new 0 0 347.21 385.57;" xml:space="preserve">
<style type="text/css">
	.st0{fill:#AED655;}
</style>
<path class="st0" d="M171.3,230.03c-9.3-0.09-16.52,3.59-23.84,7.15c-8.04,3.91-15.97,8.18-24.34,11.23
	c-14.08,5.14-32.55-0.47-41.37-12.24c18.36,3.8,34.01-4.28,50.28-9.23C145.71,222.77,160.55,223.78,171.3,230.03z"/>
<path class="st0" d="M76.05,230.31c4.87-2.51,10.25-5.19,15.54-8.05c5.99-3.24,11.66-7.16,17.87-9.85
	c13.61-5.89,29.97-3.75,45.51,10.19c-16.48-2.82-30.21,4.7-44.65,8.78C98.32,234.78,86.59,234.38,76.05,230.31z"/>
<path class="st0" d="M267.05,61.72c-1.89,9.99-7.16,19.3-16.12,26.41c-3.68,2.92-7.43,5.77-11.29,8.45
	c-9.09,6.31-17.33,13.4-22.28,24.08c-4.26-11.21,1.18-27.99,11.78-35.52c6.23-4.43,13.29-7.67,19.83-11.68
	C255.21,69.64,261.26,65.5,267.05,61.72z"/>
<path class="st0" d="M26.81,118.33c12.78,6.06,25.25,5.3,37.8,4.25c12.42-1.04,24.53-0.18,35.16,7.44c1.25,0.9,2.51,1.79,3.72,3.09
	c-13.81-2.13-26.43,3.73-39.65,5.26C48.4,140.17,33.89,132.67,26.81,118.33z"/>
<path class="st0" d="M114.07,5.72c1.72,13.56,8.59,23.29,15.9,32.84c6.41,8.38,12.63,16.94,13.65,27.95
	c0.36,3.94,0.41,7.92-0.12,12.1c-1.76-2.92-3.14-6.16-5.35-8.68c-4.76-5.46-9.93-10.57-14.96-15.79
	c-6.27-6.5-12.19-13.24-13.77-22.57C107.96,22.91,109.1,14.64,114.07,5.72z"/>
<path class="st0" d="M218.66,127.91c2.56-10.03,8.29-18.61,16.84-25.31c4.15-3.25,8.67-6.06,12.59-9.55
	c5.75-5.13,11.12-10.69,16.12-15.55c2.01,13.69-3.18,27.46-15.43,35.27c-5.22,3.33-11.21,5.45-16.8,8.23
	C227.47,123.23,223.04,125.63,218.66,127.91z"/>
<path class="st0" d="M23.48,111.48c8.53,1.21,15.75-3.04,23.42-5.23c18.5-5.29,34.5,0.66,45.45,17.68
	c-13.06-6.1-26.18-3.11-39.11-2.97C42.27,121.08,32.31,118.4,23.48,111.48z"/>
<path class="st0" d="M117.5,0c3.57,3.56,7.03,7.03,10.51,10.47c5.14,5.07,11.01,9.59,15.31,15.29c8.93,11.81,7.1,24.76,2.03,37.72
	c-1.72-10.88-8.27-19.13-14.55-27.5c-6.22-8.28-11.61-16.91-12.84-27.47C117.62,5.48,117.63,2.41,117.5,0z"/>
<path class="st0" d="M246.27,31.91c-6.84,1.66-13.68,3.31-20.52,4.99c-6.26,1.53-12.51,3.08-18.41,4.53
	c0.5-5.42,7.58-12.65,15.32-14.01c4.02-0.71,8.18-0.64,12.28-0.77c2.98-0.09,5.96,0.19,8.94,0.09c2.77-0.1,5.52-0.48,9.07-0.81
	c-2.53,2.28-4.59,4.14-6.65,6.01C246.3,31.94,246.27,31.91,246.27,31.91z"/>
<path class="st0" d="M188.93,129.51c-6.16,1.54-12.3,3.16-18.48,4.61c-6.81,1.59-13.65,3.03-20.08,4.45
	c0.72-6.53,9.18-13.77,18.65-14.41c4.52-0.31,9.08,0.05,13.62-0.03c4.09-0.08,8.18-0.34,12.87-0.55c-2.32,2.12-4.45,4.05-6.57,5.99
	L188.93,129.51z"/>
<path class="st0" d="M222.77,195.99c-7.78,0-16.09,0.17-24.39-0.04c-9.66-0.24-17.32-5.82-20.57-14.58
	c-0.13-0.34-0.02-0.77-0.02-1.78c7.71,5.89,16.66,5.87,25.32,6.94C211.12,187.51,218.24,190.13,222.77,195.99z"/>
<path class="st0" d="M255.6,237.01c1.31-9.52,6.44-16.66,16.57-19.58c4.76-1.37,9.68-2.17,14.48-3.43c3.12-0.81,6.14-1.98,9.05-2.94
	c-1.98,5.59-6.28,9.9-13.49,13.08c-3.5,1.54-7.24,2.57-10.66,4.26C266.07,231.12,260.78,234.19,255.6,237.01z"/>
<path class="st0" d="M246.3,31.94c-0.58,6.95-5.43,10.83-10.7,14.06c-5.59,3.42-11.9,3.23-18.21,2.44
	c-3.9-0.49-7.82-0.77-11.98-1.17c5.22-5.12,11.59-7.81,18.92-8.76c5.34-0.69,10.69-1.46,15.9-2.75c2.2-0.54,4.04-2.52,6.04-3.84
	C246.27,31.91,246.3,31.94,246.3,31.94z"/>
<path class="st0" d="M188.95,129.55c-0.3,1.48-0.25,3.17-0.97,4.41c-5.42,9.29-14.48,13.48-25.29,12.05
	c-4.73-0.63-9.49-1.02-14.25-1.52c4.67-4.56,10.57-7.46,17.5-8.46c5.62-0.82,11.28-1.54,16.8-2.83c2.23-0.52,4.14-2.42,6.19-3.69
	C188.93,129.51,188.95,129.55,188.95,129.55z"/>
<path class="st0" d="M216.91,188.13c-7.46-1.36-15.19-2.93-22.97-4.13c-6.97-1.08-12.93-3.9-17.74-8.55
	c4.43-0.43,8.87-0.69,13.26-1.31C202.38,172.32,211.67,177.18,216.91,188.13z"/>
<path class="st0" d="M291.85,220.84c-1.16,9.83-9.46,18.08-20.58,19.59c-5.17,0.7-10.33,1.4-15.6,2.12
	c3.5-5.76,8.67-9.75,15.11-12.43C277.93,227.14,284.97,223.88,291.85,220.84z"/>
</svg>
