<?xml version="1.0" encoding="utf-8"?>
<!-- Generator: Adobe Illustrator 28.0.0, SVG Export Plug-In . SVG Version: 6.00 Build 0)  -->
<svg version="1.1" id="Layer_1" xmlns="http://www.w3.org/2000/svg" xmlns:xlink="http://www.w3.org/1999/xlink" x="0px" y="0px"
	 viewBox="0 0 347.21 385.57" style="enable-background:new 0 0 347.21 385.57;" xml:space="preserve">
<style type="text/css">
	.st0{fill:#AED655;}
</style>
<path class="st0" d="M162.05,382.17c11.02-16.57,21.4-30.63,33.69-49.45c6.95-10.65,12.07-22.29,14.22-34.99
	c2.94-17.41-2.27-32.74-13.85-45.38c-11.24-12.26-23.84-23.27-35.67-35.01c-8.89-8.82-18.17-17.39-25.99-27.1
	c-5.33-6.62-8.99-14.78-12.42-22.68c-4.98-11.46-8.5-23.57-13.71-34.91c-5.14-11.19-14.34-18.98-25.09-24.88
	c-2.29-1.26-4.52-2.62-7.29-4.23c6.33-1.78,23.82,7.62,32.68,19.19c7.79,10.17,13.5,21.92,19.81,32.45
	c0.16-2.93,0.21-6.93,0.64-10.89c1.9-17.51,8.22-33.66,15.44-49.52c7.67-16.84,15.68-33.53,23.07-50.49
	c5.67-13,9.03-26.69,9.7-40.94c0.05-1.18,0.33-2.35,0.51-3.52c0.44-0.05,0.87-0.1,1.31-0.15c0.3,1.45,0.78,2.88,0.88,4.35
	c1.28,20.29-3.33,39.61-9.89,58.58c-1.99,5.75-4.09,11.46-5.85,17.33c12.34-12.09,24.94-23.9,31.38-40.49
	c3.74-9.63,2.71-18.4-4.48-26.15c-0.6-0.65-0.91-1.57-1.94-3.43c1.87,0.72,2.8,0.86,3.44,1.36c9.19,7.28,11.61,16.88,9.12,27.92
	c-2.6,11.55-9.4,20.9-16.24,30.25c-10.84,14.82-22.47,29.2-31.92,44.88c-17.43,28.89-14.41,60.39,7.72,85.95
	c9.1,10.51,20.11,19.34,29.95,29.23c9.84,9.88,19.6,19.88,28.79,30.35c3.96,4.51,6.39,10.35,9.73,15.96
	c0.62-2.01,1.3-4.05,1.86-6.12c6.93-25.54,5.61-50.43-5.64-74.62c-6.42-13.81-12.78-27.66-18.97-41.57
	c-2.51-5.65-4.09-11.6-2.17-17.85c1.19-3.86,3.27-7.07,7.91-9.69c-0.56,1.85-0.59,2.85-1.09,3.46c-4.08,4.98-4.02,10.53-2.01,16.15
	c1.33,3.73,3.1,7.33,4.89,10.88c8.21,16.26,16.89,32.3,24.67,48.76c14.25,30.17,12.04,60.31-0.47,90.65
	c-12.74,30.89-28.95,59.67-49.14,86.25c-0.94,1.23-1.8,2.52-3.14,4.41c-20.66,2-27.78,1.93-27.95,0.88
	C158.41,386.56,161.83,384.56,162.05,382.17c0.04-0.38-0.04-0.43-0.07-0.45c-0.53-0.23-3.61,5.5-3.45,5.6
	C158.64,387.39,160.25,384.88,162.05,382.17z"/>
</svg>
