<?xml version="1.0" encoding="utf-8"?>
<!-- Generator: Adobe Illustrator 28.0.0, SVG Export Plug-In . SVG Version: 6.00 Build 0)  -->
<svg version="1.1" id="Layer_1" xmlns="http://www.w3.org/2000/svg" xmlns:xlink="http://www.w3.org/1999/xlink" x="0px" y="0px"
	 viewBox="0 0 285.35 413.31" style="enable-background:new 0 0 285.35 413.31;" xml:space="preserve">
<style type="text/css">
	.st0{fill:#96BD4B;}
</style>
<path class="st0" d="M157.81,6.43c-2.65,1.94-6.01,1.9-8.9,3.18c-23.56,10.4-38.75,27.71-43.68,53.31
	c-1.17,6.05-2.33,12.13-0.99,18.46c0.8,3.77-1.72,6.38-5.08,8.14c-7.91,4.14-15.37,8.95-21.4,15.64
	c-11.15,12.39-17.78,26.68-18.94,43.54c-1.2,17.51,3.29,33.23,13.61,47.29c3.19,4.35,6.48,8.7,11.07,11.85
	c3.4,2.33,3.88,5.61,2.84,9.52c-4.03,15.16-1.95,29.43,6.82,42.53c8.48,12.69,20.64,19.94,35.34,23.16c2.3,0.5,4.77,0.2,7.16,0.27
	c-0.6,10.88-1.2,21.75-1.8,32.63c-11.53-0.35-23.12,0.93-34.56-1.58c-31.75-6.97-54.04-25.39-66.78-55.24
	c-5.19-12.15-7.17-24.94-6.31-38.13c0.21-3.26-0.72-5.72-2.84-8.27C-16.47,164.93-3.81,90.88,49.5,58.94
	c7.67-4.59,15.69-8.37,24.26-10.84c2.66-0.77,4.31-2.08,5.56-4.53c8.56-16.7,21.76-28.3,39.35-34.71
	C131.42,4.21,144.5,3.1,157.81,6.43z"/>
</svg>
